<?xml version="1.0" standalone="no"?>
<svg xmlns:xlink="http://www.w3.org/1999/xlink" id="wave" style="transform:rotate(180deg); transition: 0.3s" viewBox="0 0 1440 100" version="1.1" xmlns="http://www.w3.org/2000/svg"><defs><linearGradient id="sw-gradient-0" x1="0" x2="0" y1="1" y2="0"><stop stop-color="rgba(255, 249, 234, 1)" offset="0%"/><stop stop-color="rgba(255, 249, 234, 1)" offset="100%"/></linearGradient></defs><path style="transform:translate(0, 0px); opacity:1" fill="url(#sw-gradient-0)" d="M0,90L40,78.3C80,67,160,43,240,31.7C320,20,400,20,480,31.7C560,43,640,67,720,68.3C800,70,880,50,960,50C1040,50,1120,70,1200,76.7C1280,83,1360,77,1440,63.3C1520,50,1600,30,1680,25C1760,20,1840,30,1920,35C2000,40,2080,40,2160,35C2240,30,2320,20,2400,13.3C2480,7,2560,3,2640,1.7C2720,0,2800,0,2880,15C2960,30,3040,60,3120,63.3C3200,67,3280,43,3360,41.7C3440,40,3520,60,3600,58.3C3680,57,3760,33,3840,30C3920,27,4000,43,4080,55C4160,67,4240,73,4320,63.3C4400,53,4480,27,4560,23.3C4640,20,4720,40,4800,51.7C4880,63,4960,67,5040,63.3C5120,60,5200,50,5280,41.7C5360,33,5440,27,5520,28.3C5600,30,5680,40,5720,45L5760,50L5760,100L5720,100C5680,100,5600,100,5520,100C5440,100,5360,100,5280,100C5200,100,5120,100,5040,100C4960,100,4880,100,4800,100C4720,100,4640,100,4560,100C4480,100,4400,100,4320,100C4240,100,4160,100,4080,100C4000,100,3920,100,3840,100C3760,100,3680,100,3600,100C3520,100,3440,100,3360,100C3280,100,3200,100,3120,100C3040,100,2960,100,2880,100C2800,100,2720,100,2640,100C2560,100,2480,100,2400,100C2320,100,2240,100,2160,100C2080,100,2000,100,1920,100C1840,100,1760,100,1680,100C1600,100,1520,100,1440,100C1360,100,1280,100,1200,100C1120,100,1040,100,960,100C880,100,800,100,720,100C640,100,560,100,480,100C400,100,320,100,240,100C160,100,80,100,40,100L0,100Z"/></svg>